<svg width="27" height="27" viewBox="0 0 27 27" fill="none" xmlns="http://www.w3.org/2000/svg">
<path opacity="0.4" d="M13.3333 26.6667C20.6971 26.6667 26.6667 20.6971 26.6667 13.3333C26.6667 5.96954 20.6971 0 13.3333 0C5.96954 0 0 5.96954 0 13.3333C0 20.6971 5.96954 26.6667 13.3333 26.6667Z" fill="#AAAAAA"/>
<path d="M14.7468 13.3334L17.8135 10.2667C18.2001 9.88002 18.2001 9.24002 17.8135 8.85335C17.4268 8.46669 16.7868 8.46669 16.4001 8.85335L13.3335 11.92L10.2668 8.85335C9.88014 8.46669 9.24014 8.46669 8.85348 8.85335C8.46681 9.24002 8.46681 9.88002 8.85348 10.2667L11.9201 13.3334L8.85348 16.4C8.46681 16.7867 8.46681 17.4267 8.85348 17.8134C9.05348 18.0134 9.30681 18.1067 9.56014 18.1067C9.81348 18.1067 10.0668 18.0134 10.2668 17.8134L13.3335 14.7467L16.4001 17.8134C16.6001 18.0134 16.8535 18.1067 17.1068 18.1067C17.3601 18.1067 17.6135 18.0134 17.8135 17.8134C18.2001 17.4267 18.2001 16.7867 17.8135 16.4L14.7468 13.3334Z" fill="#605C5C"/>
</svg>
