<svg width="18" height="18" viewBox="0 0 18 18" fill="none" xmlns="http://www.w3.org/2000/svg">
<path d="M6.33613 1.40549C7.20189 -0.468514 9.86549 -0.468514 10.7313 1.40549L11.9197 3.97806C12.1493 4.47496 12.5405 4.8794 13.0295 5.12537L15.7347 6.48616C17.5119 7.38016 17.5119 9.91727 15.7347 10.8113L13.0295 12.1721C12.5405 12.418 12.1493 12.8225 11.9197 13.3194L10.7313 15.8919C9.86549 17.7659 7.20189 17.7659 6.33613 15.8919L5.14763 13.3194C4.91807 12.8225 4.52689 12.418 4.0379 12.1721L1.33273 10.8113C-0.444491 9.91727 -0.444493 7.38016 1.33272 6.48616L4.0379 5.12537C4.52689 4.8794 4.91807 4.47496 5.14763 3.97806L6.33613 1.40549Z" fill="#9E9E9E"/>
</svg>
