<svg width="348" height="66" viewBox="0 0 348 66" fill="none" xmlns="http://www.w3.org/2000/svg">
<rect x="19.5" y="0.5" width="316" height="54" rx="12.5" fill="#F8F8F8" stroke="#E6E6E6"/>
<rect x="0.5" y="11.5" width="347" height="54" rx="12.5" fill="#F8F8F8" stroke="#E6E6E6"/>
<path d="M100.611 34.1777L106.188 42.6152V34.0996C106.188 33.5462 106.305 33.1328 106.539 32.8594C106.78 32.5794 107.102 32.4395 107.506 32.4395C107.923 32.4395 108.251 32.5794 108.492 32.8594C108.733 33.1328 108.854 33.5462 108.854 34.0996V45.3594C108.854 46.6159 108.333 47.2441 107.291 47.2441C107.031 47.2441 106.796 47.2051 106.588 47.127C106.38 47.0553 106.184 46.9382 106.002 46.7754C105.82 46.6126 105.65 46.4238 105.494 46.209C105.338 45.9876 105.182 45.763 105.025 45.5352L99.5859 37.1953V45.584C99.5859 46.1309 99.459 46.5443 99.2051 46.8242C98.9512 47.1042 98.6257 47.2441 98.2285 47.2441C97.8184 47.2441 97.4896 47.1042 97.2422 46.8242C96.9948 46.5378 96.8711 46.1243 96.8711 45.584V34.5391C96.8711 34.0703 96.9232 33.7025 97.0273 33.4355C97.151 33.1426 97.3561 32.9049 97.6426 32.7227C97.929 32.5339 98.2383 32.4395 98.5703 32.4395C98.8307 32.4395 99.0521 32.4818 99.2344 32.5664C99.4232 32.651 99.5859 32.765 99.7227 32.9082C99.8659 33.0514 100.009 33.237 100.152 33.4648C100.302 33.6927 100.455 33.9303 100.611 34.1777ZM121.822 41.8242C121.822 42.6185 121.699 43.3509 121.451 44.0215C121.204 44.6921 120.846 45.2682 120.377 45.75C119.908 46.2318 119.348 46.6029 118.697 46.8633C118.046 47.1172 117.314 47.2441 116.5 47.2441C115.693 47.2441 114.967 47.1139 114.322 46.8535C113.678 46.5931 113.118 46.222 112.643 45.7402C112.174 45.252 111.816 44.679 111.568 44.0215C111.327 43.3574 111.207 42.625 111.207 41.8242C111.207 41.0169 111.331 40.278 111.578 39.6074C111.826 38.9368 112.18 38.3639 112.643 37.8887C113.105 37.4134 113.665 37.0488 114.322 36.7949C114.98 36.5345 115.706 36.4043 116.5 36.4043C117.307 36.4043 118.04 36.5345 118.697 36.7949C119.355 37.0553 119.918 37.4264 120.387 37.9082C120.855 38.39 121.21 38.9629 121.451 39.627C121.699 40.291 121.822 41.0234 121.822 41.8242ZM119.146 41.8242C119.146 40.737 118.906 39.8906 118.424 39.2852C117.949 38.6797 117.307 38.377 116.5 38.377C115.979 38.377 115.52 38.5137 115.123 38.7871C114.726 39.054 114.42 39.4512 114.205 39.9785C113.99 40.5059 113.883 41.1211 113.883 41.8242C113.883 42.5208 113.987 43.1296 114.195 43.6504C114.41 44.1712 114.713 44.5716 115.104 44.8516C115.501 45.125 115.966 45.2617 116.5 45.2617C117.307 45.2617 117.949 44.959 118.424 44.3535C118.906 43.7415 119.146 42.8984 119.146 41.8242ZM129.078 36.6387H129.371V35.0371C129.371 34.6074 129.381 34.2721 129.4 34.0312C129.426 33.7839 129.492 33.5723 129.596 33.3965C129.7 33.2142 129.85 33.0677 130.045 32.957C130.24 32.8398 130.458 32.7812 130.699 32.7812C131.038 32.7812 131.344 32.9082 131.617 33.1621C131.799 33.3314 131.913 33.5397 131.959 33.7871C132.011 34.028 132.037 34.373 132.037 34.8223V36.6387H133.014C133.391 36.6387 133.678 36.7298 133.873 36.9121C134.075 37.0879 134.176 37.3158 134.176 37.5957C134.176 37.9538 134.033 38.2044 133.746 38.3477C133.466 38.4909 133.062 38.5625 132.535 38.5625H132.037V43.4648C132.037 43.8815 132.05 44.2038 132.076 44.4316C132.109 44.653 132.187 44.8353 132.311 44.9785C132.441 45.1152 132.649 45.1836 132.936 45.1836C133.092 45.1836 133.303 45.1576 133.57 45.1055C133.837 45.0469 134.046 45.0176 134.195 45.0176C134.41 45.0176 134.602 45.1055 134.771 45.2812C134.947 45.4505 135.035 45.6621 135.035 45.916C135.035 46.3457 134.801 46.6745 134.332 46.9023C133.863 47.1302 133.189 47.2441 132.311 47.2441C131.477 47.2441 130.846 47.1042 130.416 46.8242C129.986 46.5443 129.703 46.1569 129.566 45.6621C129.436 45.1673 129.371 44.5065 129.371 43.6797V38.5625H129.02C128.635 38.5625 128.342 38.4714 128.141 38.2891C127.939 38.1068 127.838 37.8757 127.838 37.5957C127.838 37.3158 127.942 37.0879 128.15 36.9121C128.365 36.7298 128.674 36.6387 129.078 36.6387ZM142.76 45.7402C142.115 46.2415 141.49 46.6191 140.885 46.873C140.286 47.1204 139.612 47.2441 138.863 47.2441C138.18 47.2441 137.577 47.1107 137.057 46.8438C136.542 46.5703 136.145 46.2025 135.865 45.7402C135.585 45.278 135.445 44.7767 135.445 44.2363C135.445 43.5072 135.676 42.8854 136.139 42.3711C136.601 41.8568 137.236 41.5117 138.043 41.3359C138.212 41.2969 138.632 41.209 139.303 41.0723C139.973 40.9355 140.546 40.8118 141.021 40.7012C141.503 40.584 142.024 40.444 142.584 40.2812C142.551 39.5781 142.408 39.0638 142.154 38.7383C141.907 38.4062 141.389 38.2402 140.602 38.2402C139.924 38.2402 139.413 38.3346 139.068 38.5234C138.73 38.7122 138.437 38.9954 138.189 39.373C137.949 39.7507 137.776 40.0013 137.672 40.125C137.574 40.2422 137.359 40.3008 137.027 40.3008C136.728 40.3008 136.467 40.2064 136.246 40.0176C136.031 39.8223 135.924 39.5749 135.924 39.2754C135.924 38.8066 136.09 38.3509 136.422 37.9082C136.754 37.4655 137.271 37.1009 137.975 36.8145C138.678 36.528 139.553 36.3848 140.602 36.3848C141.773 36.3848 142.695 36.5247 143.365 36.8047C144.036 37.0781 144.508 37.5143 144.781 38.1133C145.061 38.7122 145.201 39.5065 145.201 40.4961C145.201 41.1211 145.198 41.6517 145.191 42.0879C145.191 42.5241 145.188 43.0091 145.182 43.543C145.182 44.0443 145.263 44.5684 145.426 45.1152C145.595 45.6556 145.68 46.0039 145.68 46.1602C145.68 46.4336 145.549 46.6842 145.289 46.9121C145.035 47.1335 144.745 47.2441 144.42 47.2441C144.146 47.2441 143.876 47.1172 143.609 46.8633C143.342 46.6029 143.059 46.2285 142.76 45.7402ZM142.584 41.8828C142.193 42.026 141.624 42.179 140.875 42.3418C140.133 42.498 139.618 42.6152 139.332 42.6934C139.046 42.765 138.772 42.9115 138.512 43.1328C138.251 43.3477 138.121 43.6504 138.121 44.041C138.121 44.4447 138.274 44.7897 138.58 45.0762C138.886 45.3561 139.286 45.4961 139.781 45.4961C140.309 45.4961 140.794 45.3822 141.236 45.1543C141.686 44.9199 142.014 44.6204 142.223 44.2559C142.464 43.8522 142.584 43.1882 142.584 42.2637V41.8828ZM156.5 43.7578C156.5 44.4935 156.321 45.125 155.963 45.6523C155.605 46.1732 155.074 46.5703 154.371 46.8438C153.674 47.1107 152.825 47.2441 151.822 47.2441C150.865 47.2441 150.045 47.0977 149.361 46.8047C148.678 46.5117 148.173 46.1471 147.848 45.7109C147.522 45.2682 147.359 44.8255 147.359 44.3828C147.359 44.0898 147.464 43.8392 147.672 43.6309C147.88 43.4225 148.144 43.3184 148.463 43.3184C148.743 43.3184 148.958 43.3867 149.107 43.5234C149.257 43.6602 149.4 43.8522 149.537 44.0996C149.811 44.5749 150.136 44.9297 150.514 45.1641C150.898 45.3984 151.419 45.5156 152.076 45.5156C152.61 45.5156 153.046 45.3984 153.385 45.1641C153.73 44.9232 153.902 44.6497 153.902 44.3438C153.902 43.875 153.723 43.5332 153.365 43.3184C153.014 43.1035 152.431 42.8984 151.617 42.7031C150.699 42.4753 149.951 42.2376 149.371 41.9902C148.798 41.7363 148.339 41.4043 147.994 40.9941C147.649 40.584 147.477 40.0794 147.477 39.4805C147.477 38.9466 147.636 38.4421 147.955 37.9668C148.274 37.4915 148.743 37.1139 149.361 36.834C149.986 36.5475 150.738 36.4043 151.617 36.4043C152.307 36.4043 152.926 36.4759 153.473 36.6191C154.026 36.7624 154.485 36.9544 154.85 37.1953C155.221 37.4362 155.501 37.7031 155.689 37.9961C155.885 38.2891 155.982 38.5755 155.982 38.8555C155.982 39.1615 155.878 39.4121 155.67 39.6074C155.468 39.8027 155.178 39.9004 154.801 39.9004C154.527 39.9004 154.293 39.8223 154.098 39.666C153.909 39.5098 153.691 39.2754 153.443 38.9629C153.242 38.7025 153.004 38.4941 152.73 38.3379C152.457 38.1816 152.086 38.1035 151.617 38.1035C151.135 38.1035 150.735 38.2077 150.416 38.416C150.097 38.6178 149.938 38.8717 149.938 39.1777C149.938 39.4577 150.055 39.6888 150.289 39.8711C150.523 40.0469 150.839 40.1934 151.236 40.3105C151.633 40.4277 152.18 40.571 152.877 40.7402C153.704 40.9421 154.378 41.1829 154.898 41.4629C155.426 41.7428 155.823 42.0749 156.09 42.459C156.363 42.8366 156.5 43.2695 156.5 43.7578ZM165.396 46.0234L163.043 42.1562L161.598 43.5234V45.6426C161.598 46.1569 161.461 46.554 161.188 46.834C160.921 47.1074 160.611 47.2441 160.26 47.2441C159.85 47.2441 159.527 47.1074 159.293 46.834C159.059 46.5605 158.941 46.1569 158.941 45.623V34.2559C158.941 33.6634 159.055 33.2142 159.283 32.9082C159.511 32.5957 159.837 32.4395 160.26 32.4395C160.67 32.4395 160.995 32.5794 161.236 32.8594C161.477 33.1393 161.598 33.5527 161.598 34.0996V40.5645L164.596 37.4199C164.967 37.0293 165.25 36.7624 165.445 36.6191C165.641 36.4759 165.878 36.4043 166.158 36.4043C166.49 36.4043 166.767 36.5117 166.988 36.7266C167.21 36.9349 167.32 37.1986 167.32 37.5176C167.32 37.9082 166.959 38.429 166.236 39.0801L164.82 40.3789L167.555 44.6758C167.757 44.9948 167.9 45.2389 167.984 45.4082C168.076 45.571 168.121 45.7272 168.121 45.877C168.121 46.3001 168.004 46.6354 167.77 46.8828C167.542 47.1237 167.239 47.2441 166.861 47.2441C166.536 47.2441 166.285 47.1562 166.109 46.9805C165.934 46.8047 165.696 46.4857 165.396 46.0234ZM176.881 38.0645L178.619 44.0215L180.201 38.4844C180.37 37.9049 180.494 37.5111 180.572 37.3027C180.657 37.0879 180.81 36.8861 181.031 36.6973C181.259 36.502 181.568 36.4043 181.959 36.4043C182.356 36.4043 182.665 36.502 182.887 36.6973C183.115 36.8861 183.274 37.0944 183.365 37.3223C183.456 37.5436 183.583 37.931 183.746 38.4844L185.328 44.0215L187.086 38.0645C187.203 37.6348 187.298 37.3255 187.369 37.1367C187.441 36.9414 187.561 36.7721 187.73 36.6289C187.9 36.4792 188.144 36.4043 188.463 36.4043C188.782 36.4043 189.059 36.515 189.293 36.7363C189.527 36.9577 189.645 37.2181 189.645 37.5176C189.645 37.791 189.544 38.2044 189.342 38.7578L187.164 45.1445C186.975 45.6849 186.829 46.0755 186.725 46.3164C186.62 46.5573 186.454 46.7721 186.227 46.9609C186.005 47.1497 185.699 47.2441 185.309 47.2441C184.905 47.2441 184.586 47.1432 184.352 46.9414C184.124 46.7396 183.954 46.4922 183.844 46.1992C183.733 45.9062 183.613 45.5254 183.482 45.0566L181.959 39.8613L180.484 45.0566C180.289 45.7793 180.077 46.3262 179.85 46.6973C179.622 47.0618 179.221 47.2441 178.648 47.2441C178.355 47.2441 178.105 47.1855 177.896 47.0684C177.695 46.9577 177.525 46.7982 177.389 46.5898C177.252 46.375 177.132 46.1243 177.027 45.8379C176.923 45.5449 176.842 45.3138 176.783 45.1445L174.625 38.7578C174.41 38.1589 174.303 37.7454 174.303 37.5176C174.303 37.2311 174.417 36.974 174.645 36.7461C174.872 36.5182 175.152 36.4043 175.484 36.4043C175.927 36.4043 176.227 36.5312 176.383 36.7852C176.539 37.0326 176.705 37.459 176.881 38.0645ZM197.955 45.7402C197.311 46.2415 196.686 46.6191 196.08 46.873C195.481 47.1204 194.807 47.2441 194.059 47.2441C193.375 47.2441 192.773 47.1107 192.252 46.8438C191.738 46.5703 191.34 46.2025 191.061 45.7402C190.781 45.278 190.641 44.7767 190.641 44.2363C190.641 43.5072 190.872 42.8854 191.334 42.3711C191.796 41.8568 192.431 41.5117 193.238 41.3359C193.408 41.2969 193.827 41.209 194.498 41.0723C195.169 40.9355 195.742 40.8118 196.217 40.7012C196.699 40.584 197.219 40.444 197.779 40.2812C197.747 39.5781 197.604 39.0638 197.35 38.7383C197.102 38.4062 196.585 38.2402 195.797 38.2402C195.12 38.2402 194.609 38.3346 194.264 38.5234C193.925 38.7122 193.632 38.9954 193.385 39.373C193.144 39.7507 192.971 40.0013 192.867 40.125C192.77 40.2422 192.555 40.3008 192.223 40.3008C191.923 40.3008 191.663 40.2064 191.441 40.0176C191.227 39.8223 191.119 39.5749 191.119 39.2754C191.119 38.8066 191.285 38.3509 191.617 37.9082C191.949 37.4655 192.467 37.1009 193.17 36.8145C193.873 36.528 194.749 36.3848 195.797 36.3848C196.969 36.3848 197.89 36.5247 198.561 36.8047C199.231 37.0781 199.703 37.5143 199.977 38.1133C200.257 38.7122 200.396 39.5065 200.396 40.4961C200.396 41.1211 200.393 41.6517 200.387 42.0879C200.387 42.5241 200.383 43.0091 200.377 43.543C200.377 44.0443 200.458 44.5684 200.621 45.1152C200.79 45.6556 200.875 46.0039 200.875 46.1602C200.875 46.4336 200.745 46.6842 200.484 46.9121C200.23 47.1335 199.941 47.2441 199.615 47.2441C199.342 47.2441 199.072 47.1172 198.805 46.8633C198.538 46.6029 198.255 46.2285 197.955 45.7402ZM197.779 41.8828C197.389 42.026 196.819 42.179 196.07 42.3418C195.328 42.498 194.814 42.6152 194.527 42.6934C194.241 42.765 193.967 42.9115 193.707 43.1328C193.447 43.3477 193.316 43.6504 193.316 44.041C193.316 44.4447 193.469 44.7897 193.775 45.0762C194.081 45.3561 194.482 45.4961 194.977 45.4961C195.504 45.4961 195.989 45.3822 196.432 45.1543C196.881 44.9199 197.21 44.6204 197.418 44.2559C197.659 43.8522 197.779 43.1882 197.779 42.2637V41.8828ZM211.695 43.7578C211.695 44.4935 211.516 45.125 211.158 45.6523C210.8 46.1732 210.27 46.5703 209.566 46.8438C208.87 47.1107 208.02 47.2441 207.018 47.2441C206.061 47.2441 205.24 47.0977 204.557 46.8047C203.873 46.5117 203.368 46.1471 203.043 45.7109C202.717 45.2682 202.555 44.8255 202.555 44.3828C202.555 44.0898 202.659 43.8392 202.867 43.6309C203.076 43.4225 203.339 43.3184 203.658 43.3184C203.938 43.3184 204.153 43.3867 204.303 43.5234C204.452 43.6602 204.596 43.8522 204.732 44.0996C205.006 44.5749 205.331 44.9297 205.709 45.1641C206.093 45.3984 206.614 45.5156 207.271 45.5156C207.805 45.5156 208.242 45.3984 208.58 45.1641C208.925 44.9232 209.098 44.6497 209.098 44.3438C209.098 43.875 208.919 43.5332 208.561 43.3184C208.209 43.1035 207.626 42.8984 206.812 42.7031C205.895 42.4753 205.146 42.2376 204.566 41.9902C203.993 41.7363 203.535 41.4043 203.189 40.9941C202.844 40.584 202.672 40.0794 202.672 39.4805C202.672 38.9466 202.831 38.4421 203.15 37.9668C203.469 37.4915 203.938 37.1139 204.557 36.834C205.182 36.5475 205.934 36.4043 206.812 36.4043C207.503 36.4043 208.121 36.4759 208.668 36.6191C209.221 36.7624 209.68 36.9544 210.045 37.1953C210.416 37.4362 210.696 37.7031 210.885 37.9961C211.08 38.2891 211.178 38.5755 211.178 38.8555C211.178 39.1615 211.074 39.4121 210.865 39.6074C210.663 39.8027 210.374 39.9004 209.996 39.9004C209.723 39.9004 209.488 39.8223 209.293 39.666C209.104 39.5098 208.886 39.2754 208.639 38.9629C208.437 38.7025 208.199 38.4941 207.926 38.3379C207.652 38.1816 207.281 38.1035 206.812 38.1035C206.331 38.1035 205.93 38.2077 205.611 38.416C205.292 38.6178 205.133 38.8717 205.133 39.1777C205.133 39.4577 205.25 39.6888 205.484 39.8711C205.719 40.0469 206.035 40.1934 206.432 40.3105C206.829 40.4277 207.376 40.571 208.072 40.7402C208.899 40.9421 209.573 41.1829 210.094 41.4629C210.621 41.7428 211.018 42.0749 211.285 42.459C211.559 42.8366 211.695 43.2695 211.695 43.7578ZM218.736 36.6387H219.371V35.8379C219.371 35.0046 219.475 34.3438 219.684 33.8555C219.898 33.3607 220.257 33.0026 220.758 32.7812C221.266 32.5534 221.959 32.4395 222.838 32.4395C224.394 32.4395 225.172 32.8203 225.172 33.582C225.172 33.8294 225.09 34.041 224.928 34.2168C224.765 34.3926 224.573 34.4805 224.352 34.4805C224.247 34.4805 224.068 34.4609 223.814 34.4219C223.561 34.3828 223.346 34.3633 223.17 34.3633C222.688 34.3633 222.379 34.5065 222.242 34.793C222.105 35.0729 222.037 35.4766 222.037 36.0039V36.6387H222.691C223.707 36.6387 224.215 36.9447 224.215 37.5566C224.215 37.9928 224.078 38.2695 223.805 38.3867C223.538 38.5039 223.167 38.5625 222.691 38.5625H222.037V45.623C222.037 46.1504 221.91 46.554 221.656 46.834C221.409 47.1074 221.087 47.2441 220.689 47.2441C220.312 47.2441 219.996 47.1074 219.742 46.834C219.495 46.554 219.371 46.1504 219.371 45.623V38.5625H218.639C218.242 38.5625 217.936 38.4746 217.721 38.2988C217.506 38.1165 217.398 37.8822 217.398 37.5957C217.398 36.9577 217.844 36.6387 218.736 36.6387ZM235.318 41.8242C235.318 42.6185 235.195 43.3509 234.947 44.0215C234.7 44.6921 234.342 45.2682 233.873 45.75C233.404 46.2318 232.844 46.6029 232.193 46.8633C231.542 47.1172 230.81 47.2441 229.996 47.2441C229.189 47.2441 228.463 47.1139 227.818 46.8535C227.174 46.5931 226.614 46.222 226.139 45.7402C225.67 45.252 225.312 44.679 225.064 44.0215C224.824 43.3574 224.703 42.625 224.703 41.8242C224.703 41.0169 224.827 40.278 225.074 39.6074C225.322 38.9368 225.676 38.3639 226.139 37.8887C226.601 37.4134 227.161 37.0488 227.818 36.7949C228.476 36.5345 229.202 36.4043 229.996 36.4043C230.803 36.4043 231.536 36.5345 232.193 36.7949C232.851 37.0553 233.414 37.4264 233.883 37.9082C234.352 38.39 234.706 38.9629 234.947 39.627C235.195 40.291 235.318 41.0234 235.318 41.8242ZM232.643 41.8242C232.643 40.737 232.402 39.8906 231.92 39.2852C231.445 38.6797 230.803 38.377 229.996 38.377C229.475 38.377 229.016 38.5137 228.619 38.7871C228.222 39.054 227.916 39.4512 227.701 39.9785C227.486 40.5059 227.379 41.1211 227.379 41.8242C227.379 42.5208 227.483 43.1296 227.691 43.6504C227.906 44.1712 228.209 44.5716 228.6 44.8516C228.997 45.125 229.462 45.2617 229.996 45.2617C230.803 45.2617 231.445 44.959 231.92 44.3535C232.402 43.7415 232.643 42.8984 232.643 41.8242ZM244.352 45.7402V45.3984C244.033 45.8021 243.697 46.1406 243.346 46.4141C242.994 46.6875 242.61 46.8893 242.193 47.0195C241.777 47.1562 241.301 47.2246 240.768 47.2246C240.123 47.2246 239.544 47.0911 239.029 46.8242C238.521 46.5573 238.128 46.1895 237.848 45.7207C237.516 45.1543 237.35 44.3405 237.35 43.2793V37.9961C237.35 37.4622 237.47 37.0651 237.711 36.8047C237.952 36.5378 238.271 36.4043 238.668 36.4043C239.072 36.4043 239.397 36.5378 239.645 36.8047C239.892 37.0716 240.016 37.4688 240.016 37.9961V42.2637C240.016 42.8822 240.068 43.403 240.172 43.8262C240.276 44.2428 240.462 44.5716 240.729 44.8125C241.002 45.0469 241.37 45.1641 241.832 45.1641C242.281 45.1641 242.704 45.0306 243.102 44.7637C243.499 44.4967 243.788 44.1484 243.971 43.7188C244.12 43.3411 244.195 42.5143 244.195 41.2383V37.9961C244.195 37.4688 244.319 37.0716 244.566 36.8047C244.814 36.5378 245.136 36.4043 245.533 36.4043C245.93 36.4043 246.249 36.5378 246.49 36.8047C246.731 37.0651 246.852 37.4622 246.852 37.9961V45.7207C246.852 46.2285 246.734 46.6094 246.5 46.8633C246.272 47.1172 245.976 47.2441 245.611 47.2441C245.247 47.2441 244.944 47.1139 244.703 46.8535C244.469 46.5866 244.352 46.2155 244.352 45.7402ZM251.939 37.8789V38.2012C252.408 37.5827 252.919 37.1302 253.473 36.8438C254.033 36.5508 254.674 36.4043 255.396 36.4043C256.1 36.4043 256.728 36.5573 257.281 36.8633C257.835 37.1693 258.248 37.6022 258.521 38.1621C258.697 38.4876 258.811 38.8392 258.863 39.2168C258.915 39.5944 258.941 40.0762 258.941 40.6621V45.623C258.941 46.1569 258.818 46.5605 258.57 46.834C258.329 47.1074 258.014 47.2441 257.623 47.2441C257.226 47.2441 256.904 47.1042 256.656 46.8242C256.409 46.5443 256.285 46.1439 256.285 45.623V41.1797C256.285 40.3008 256.161 39.6302 255.914 39.168C255.673 38.6992 255.188 38.4648 254.459 38.4648C253.984 38.4648 253.551 38.6081 253.16 38.8945C252.77 39.1745 252.483 39.5618 252.301 40.0566C252.171 40.4538 252.105 41.196 252.105 42.2832V45.623C252.105 46.1634 251.979 46.5703 251.725 46.8438C251.477 47.1107 251.155 47.2441 250.758 47.2441C250.374 47.2441 250.058 47.1042 249.811 46.8242C249.563 46.5443 249.439 46.1439 249.439 45.623V37.918C249.439 37.4102 249.55 37.0326 249.771 36.7852C249.993 36.5312 250.296 36.4043 250.68 36.4043C250.914 36.4043 251.126 36.4596 251.314 36.5703C251.503 36.681 251.653 36.847 251.764 37.0684C251.881 37.2897 251.939 37.5599 251.939 37.8789ZM268.912 45.7207V45.457C268.554 45.8672 268.199 46.2025 267.848 46.4629C267.503 46.7168 267.125 46.9089 266.715 47.0391C266.311 47.1758 265.868 47.2441 265.387 47.2441C264.749 47.2441 264.156 47.1107 263.609 46.8438C263.069 46.5703 262.6 46.1829 262.203 45.6816C261.806 45.1803 261.503 44.5911 261.295 43.9141C261.093 43.237 260.992 42.5046 260.992 41.7168C260.992 40.0501 261.399 38.7513 262.213 37.8203C263.027 36.8893 264.098 36.4238 265.426 36.4238C266.194 36.4238 266.842 36.5573 267.369 36.8242C267.896 37.0846 268.411 37.4883 268.912 38.0352V34.0996C268.912 33.5527 269.02 33.1393 269.234 32.8594C269.456 32.5794 269.768 32.4395 270.172 32.4395C270.576 32.4395 270.885 32.5697 271.1 32.8301C271.321 33.084 271.432 33.4616 271.432 33.9629V45.7207C271.432 46.2285 271.314 46.6094 271.08 46.8633C270.846 47.1172 270.543 47.2441 270.172 47.2441C269.807 47.2441 269.505 47.1139 269.264 46.8535C269.029 46.5866 268.912 46.209 268.912 45.7207ZM263.668 41.8047C263.668 42.5273 263.779 43.1426 264 43.6504C264.228 44.1582 264.537 44.5423 264.928 44.8027C265.318 45.0566 265.745 45.1836 266.207 45.1836C266.676 45.1836 267.102 45.0632 267.486 44.8223C267.877 44.5749 268.186 44.2005 268.414 43.6992C268.648 43.1914 268.766 42.5599 268.766 41.8047C268.766 41.0951 268.648 40.4863 268.414 39.9785C268.186 39.4642 267.874 39.0736 267.477 38.8066C267.086 38.5332 266.656 38.3965 266.188 38.3965C265.699 38.3965 265.263 38.5365 264.879 38.8164C264.495 39.0898 264.195 39.487 263.98 40.0078C263.772 40.5221 263.668 41.1211 263.668 41.8047Z" fill="#9E9E9E"/>
<path d="M76.3024 32.7568C77.1682 30.8828 79.8318 30.8828 80.6976 32.7568L81.8861 35.3294C82.1156 35.8263 82.5068 36.2307 82.9958 36.4767L85.701 37.8374C87.4782 38.7314 87.4782 41.2686 85.701 42.1626L82.9958 43.5233C82.5068 43.7693 82.1156 44.1737 81.8861 44.6706L80.6976 47.2432C79.8318 49.1172 77.1682 49.1172 76.3024 47.2432L75.1139 44.6706C74.8844 44.1737 74.4932 43.7693 74.0042 43.5233L71.299 42.1626C69.5218 41.2686 69.5218 38.7314 71.299 37.8374L74.0042 36.4767C74.4932 36.2307 74.8844 35.8263 75.1139 35.3294L76.3024 32.7568Z" fill="#9E9E9E"/>
</svg>
